<svg xmlns="http://www.w3.org/2000/svg" viewBox="0 0 520 520" fill="none">
  <g stroke-linecap="round" stroke-linejoin="round">
    <path d="M445 236c9 78-33 154-103 190-79 40-177 20-235-47-56-65-67-158-27-234C120 70 203 29 286 45c70 14 129 65 151 133" stroke="#f78b37" stroke-width="24" opacity=".18"/>
    <path d="M407 190c27 64 10 141-42 189-58 53-148 62-215 21-70-43-99-130-68-206 30-74 109-118 187-104 57 10 105 47 129 99" stroke="#fb6f01" stroke-width="18" opacity=".16"/>
    <path d="M365 169c30 45 28 107-7 151-39 49-109 66-167 40-61-27-94-93-78-158 15-61 70-107 133-111 42-3 82 13 111 43" stroke="#ffb347" stroke-width="16" opacity=".18"/>
    <path d="M323 170c31 28 40 76 21 115-22 45-74 70-123 58-51-12-88-56-90-109-2-51 32-99 81-116 31-11 65-8 93 8" stroke="#f06a00" stroke-width="13" opacity=".14"/>
    <path d="M291 186c24 16 36 47 29 76-8 34-38 60-73 62-38 2-72-23-82-59-10-35 6-74 38-92 21-12 46-14 67-5" stroke="#f78b37" stroke-width="10" opacity=".16"/>
    <path d="M267 208c14 7 23 23 22 39-1 20-16 38-36 43-21 5-44-6-53-26-9-19-4-42 12-56 11-10 26-14 40-11" stroke="#fb6f01" stroke-width="8" opacity=".14"/>
  </g>
</svg>
